<svg width="141" height="141" viewBox="0 0 141 141" fill="none" xmlns="http://www.w3.org/2000/svg">
<g clip-path="url(#clip0_2196_33392)">
<g filter="url(#filter0_d_2196_33392)">
<path d="M134.824 95.5134V98.8692C134.824 103.409 131.13 107.104 126.59 107.104H14.4102C9.86998 107.104 6.17578 103.409 6.17578 98.8692V95.5134C6.17578 91.086 9.68668 87.4623 14.0859 87.279V53.8338C14.0859 48.927 18.0762 44.9226 22.9971 44.9226H32.43V42.6666C32.43 37.8303 36.3639 33.8964 41.2143 33.8964H47.8272C48.4335 33.8964 49.0398 33.9528 49.6179 34.0797C50.196 33.9528 50.8023 33.8964 51.4227 33.8964H57.3729C61.053 33.8964 64.2255 36.1242 65.5932 39.3249C67.1019 38.1828 68.9913 37.5201 71.0217 37.5201H78.9882C80.5533 37.5201 82.0056 37.9149 83.2887 38.6058L89.1684 37.4919C89.7747 37.3932 90.381 37.3368 90.9873 37.3368C95.5134 37.3368 99.4755 40.4811 100.406 44.838V44.9226H118.017C122.924 44.9226 126.928 48.927 126.928 53.8338V87.279C131.313 87.4623 134.824 91.086 134.824 95.5134Z" fill="url(#paint0_radial_2196_33392)"/>
</g>
<path d="M118.735 51.9728H22.2491C21.6261 51.9728 21.1211 52.4778 21.1211 53.1008V98.9258C21.1211 99.5488 21.6261 100.054 22.2491 100.054H118.735C119.358 100.054 119.863 99.5488 119.863 98.9258V53.1008C119.863 52.4778 119.358 51.9728 118.735 51.9728Z" fill="#FFF1D6"/>
<path d="M48.4904 40.9464H40.538C39.9539 40.9464 39.4805 41.4199 39.4805 42.0039V94.2162C39.4805 94.8003 39.9539 95.2737 40.538 95.2737H48.4904C49.0744 95.2737 49.5479 94.8003 49.5479 94.2162V42.0039C49.5479 41.4199 49.0744 40.9464 48.4904 40.9464Z" fill="#FFD985"/>
<path d="M57.3743 40.9464H51.4241C50.3884 40.9464 49.5488 41.786 49.5488 42.8217V93.3984C49.5488 94.4341 50.3884 95.2737 51.4241 95.2737H57.3743C58.41 95.2737 59.2496 94.4341 59.2496 93.3984V42.8217C59.2496 41.786 58.41 40.9464 57.3743 40.9464Z" fill="#F2BFB9"/>
<path d="M67.1581 50.0973H61.0387C60.0498 50.0973 59.248 50.899 59.248 51.888V93.483C59.248 94.472 60.0498 95.2737 61.0387 95.2737H67.1581C68.1471 95.2737 68.9488 94.472 68.9488 93.483V51.888C68.9488 50.899 68.1471 50.0973 67.1581 50.0973Z" fill="#DED5F7"/>
<path d="M78.9884 44.5701H71.0078C69.8709 44.5701 68.9492 45.4917 68.9492 46.6287V93.201C68.9492 94.3379 69.8709 95.2596 71.0078 95.2596H78.9884C80.1253 95.2596 81.047 94.3379 81.047 93.201V46.6287C81.047 45.4917 80.1253 44.5701 78.9884 44.5701Z" fill="#D1EDD9"/>
<path d="M101.154 94.1315L94.3577 95.4005C92.9618 95.6684 91.5941 94.8224 91.3121 93.5111L81.6395 48.5321C81.3575 47.2208 82.2599 45.9518 83.6558 45.698L90.452 44.429C91.8479 44.1611 93.2156 45.0071 93.4976 46.3184L103.17 91.2974C103.452 92.6087 102.55 93.8777 101.154 94.1315Z" fill="#FFD985"/>
<path d="M127.054 94.3291H13.9437C13.5466 94.3291 13.2246 94.6511 13.2246 95.0482V99.3487C13.2246 99.7458 13.5466 100.068 13.9437 100.068H127.054C127.451 100.068 127.773 99.7458 127.773 99.3487V95.0482C127.773 94.6511 127.451 94.3291 127.054 94.3291Z" fill="#FCE8C8"/>
</g>
<defs>
<filter id="filter0_d_2196_33392" x="3.82578" y="31.5464" width="138.048" height="82.6072" filterUnits="userSpaceOnUse" color-interpolation-filters="sRGB">
<feFlood flood-opacity="0" result="BackgroundImageFix"/>
<feColorMatrix in="SourceAlpha" type="matrix" values="0 0 0 0 0 0 0 0 0 0 0 0 0 0 0 0 0 0 127 0" result="hardAlpha"/>
<feOffset dx="2.35" dy="2.35"/>
<feGaussianBlur stdDeviation="2.35"/>
<feColorMatrix type="matrix" values="0 0 0 0 0.137255 0 0 0 0 0.137255 0 0 0 0 0.137255 0 0 0 0.1 0"/>
<feBlend mode="normal" in2="BackgroundImageFix" result="effect1_dropShadow_2196_33392"/>
<feBlend mode="normal" in="SourceGraphic" in2="effect1_dropShadow_2196_33392" result="shape"/>
</filter>
<radialGradient id="paint0_radial_2196_33392" cx="0" cy="0" r="1" gradientUnits="userSpaceOnUse" gradientTransform="translate(69.6399 75.7875) scale(104.904 104.904)">
<stop stop-color="white"/>
<stop offset="0.08" stop-color="white" stop-opacity="0.96"/>
<stop offset="0.23" stop-color="white" stop-opacity="0.86"/>
<stop offset="0.41" stop-color="white" stop-opacity="0.7"/>
<stop offset="0.62" stop-color="white" stop-opacity="0.47"/>
<stop offset="0.86" stop-color="white" stop-opacity="0.18"/>
<stop offset="1" stop-color="white" stop-opacity="0"/>
</radialGradient>
<clipPath id="clip0_2196_33392">
<rect width="141" height="141" fill="white"/>
</clipPath>
</defs>
</svg>
