<svg width="140" height="140" viewBox="0 0 140 140" fill="none" xmlns="http://www.w3.org/2000/svg">
<g filter="url(#filter0_d_2196_33486)">
<path d="M113.709 56.5019H107.759L106.821 47.5699C106.583 42.0119 102.033 37.5599 96.475 37.5599H85.359C83.595 37.3639 81.831 37.2659 80.095 37.2659C78.359 37.2659 76.595 37.3639 74.831 37.5599H54.587C52.865 37.3639 51.143 37.2799 49.449 37.2799C47.755 37.2799 46.033 37.3779 44.311 37.5599H31.991C26.433 37.5599 21.883 42.0119 21.645 47.5699L17.249 89.8359C17.221 90.0739 17.207 90.3119 17.207 90.5639C17.207 96.3319 21.855 101.036 27.567 101.036C27.833 101.036 28.113 101.022 28.379 100.994C33.377 100.406 38.627 100.126 44.451 100.126C49.323 100.126 54.167 100.336 58.213 100.546C59.459 101.26 60.901 101.652 62.413 101.652H62.679C63.785 102.352 65.087 102.744 66.417 102.744C67.229 102.744 68.027 102.604 68.783 102.338C70.211 102.212 71.597 101.652 72.731 100.672C77.309 100.476 81.677 100.308 86.129 100.308C91.239 100.308 95.705 100.532 100.185 101.008C100.437 101.036 100.675 101.05 100.927 101.05C106.639 101.05 111.287 96.3599 111.287 90.5779C111.287 90.3399 111.287 90.0879 111.245 89.8499L110.055 78.4959H113.695C118.693 78.4959 122.767 74.4219 122.767 69.4099V65.6019C122.767 60.5899 118.693 56.5159 113.695 56.5159L113.709 56.5019Z" fill="url(#paint0_radial_2196_33486)"/>
</g>
<path d="M113.709 63.5033H101.459L99.8347 48.0333C99.8347 46.1153 98.3367 44.5613 96.4747 44.5613H32.0047C30.1567 44.5613 28.6447 46.1153 28.6447 48.0333L24.2207 90.5653C24.2207 92.4833 25.7187 94.0373 27.5807 94.0373C38.8927 92.7073 49.7987 93.0293 61.0267 93.6873C61.2507 94.2473 61.7967 94.6393 62.4267 94.6393H67.9007C68.4887 94.6393 68.9787 94.2893 69.2307 93.7993C79.8147 93.3653 89.6707 92.8333 100.955 94.0373C102.803 94.0373 104.315 92.4833 104.315 90.5653L102.313 71.4833H113.723C114.857 71.4833 115.795 70.5453 115.795 69.3973V65.5893C115.795 64.4413 114.857 63.5033 113.723 63.5033H113.709Z" fill="#FFF1D6"/>
<path d="M112.281 69.2847C113.518 69.2847 114.521 68.2818 114.521 67.0447C114.521 65.8076 113.518 64.8047 112.281 64.8047C111.044 64.8047 110.041 65.8076 110.041 67.0447C110.041 68.2818 111.044 69.2847 112.281 69.2847Z" fill="white"/>
<path d="M96.5852 48.1309C96.5852 47.5009 95.2552 46.8149 94.5552 46.6189C83.8312 43.7909 76.5652 44.1549 65.8412 46.9829C65.1972 47.1509 64.6512 47.2069 64.6232 47.7669C64.6372 47.3889 64.1892 47.2069 63.4612 46.9829C52.7372 43.7629 45.7372 43.4409 35.0132 46.6609C34.3552 46.7869 32.7312 47.5009 32.7312 48.1309L28.8672 90.3829C28.8672 91.0129 29.3992 91.5309 30.0572 91.5309C40.7812 88.2549 52.7512 88.2549 63.4752 91.5309H65.8412C76.9292 89.1649 88.8432 89.1649 99.2032 91.5309C99.8612 91.5309 100.393 91.0129 100.393 90.3829L96.5852 48.1309Z" fill="#E5E6E7"/>
<path d="M95.481 47.6283C95.481 47.0263 94.991 46.7323 94.333 46.5363C83.973 43.4563 76.161 43.4843 65.801 46.5363C65.171 46.7043 64.653 46.7463 64.625 47.2923C64.639 46.9283 64.205 46.7603 63.505 46.5363C53.145 43.4843 45.739 43.4843 35.379 46.5363C34.735 46.7323 34.231 47.0263 34.231 47.6283L31.291 87.8363C31.291 88.4383 31.809 88.9283 32.439 88.9283C42.365 85.9323 52.277 85.8203 62.203 88.5503C63.071 88.7883 63.953 88.9283 64.849 88.9283C65.479 88.9283 66.095 88.8583 66.711 88.7323C77.085 86.6743 87.137 86.7303 96.853 88.9283C97.483 88.9283 98.001 88.4383 98.001 87.8363L95.467 47.6283H95.481Z" fill="white"/>
<path d="M69.5376 58.4374C69.4396 57.8214 69.3136 57.2054 69.1736 56.5894C68.4176 53.1454 67.3256 49.7714 66.2476 46.4114L65.4636 46.6354C65.4636 46.6354 65.1976 46.6774 64.8756 46.8314C64.5536 46.9854 64.6236 47.3074 64.6236 47.3074C65.7856 51.3394 67.3676 55.4694 67.8856 59.6414C68.3336 63.2954 68.2216 66.9214 68.1236 70.5754C68.0256 74.2014 67.8436 77.8414 67.3816 81.4394C67.0596 83.9594 66.5976 86.4514 66.2336 88.9574C66.0656 90.0494 65.8696 91.1974 65.8136 92.3174C65.7716 93.3254 65.7436 94.9214 66.4296 95.7334C66.8216 95.2574 66.9336 94.4594 67.1436 93.8714C67.4796 94.3614 67.7456 94.9494 68.1796 95.3414C68.0956 95.2574 68.2216 94.3334 68.2216 94.2074C68.2216 93.7174 68.1656 93.2134 68.1796 92.7234C68.2636 88.8174 68.4736 84.8414 68.9356 80.9634C69.3136 77.3374 69.7336 73.7534 69.9296 70.1134L69.9856 69.1194C70.1816 65.5494 70.1396 61.9794 69.5376 58.4374Z" fill="#FFEA83"/>
<defs>
<filter id="filter0_d_2196_33486" x="14.407" y="34.4659" width="116.761" height="76.678" filterUnits="userSpaceOnUse" color-interpolation-filters="sRGB">
<feFlood flood-opacity="0" result="BackgroundImageFix"/>
<feColorMatrix in="SourceAlpha" type="matrix" values="0 0 0 0 0 0 0 0 0 0 0 0 0 0 0 0 0 0 127 0" result="hardAlpha"/>
<feOffset dx="2.8" dy="2.8"/>
<feGaussianBlur stdDeviation="2.8"/>
<feColorMatrix type="matrix" values="0 0 0 0 0.137255 0 0 0 0 0.137255 0 0 0 0 0.137255 0 0 0 0.1 0"/>
<feBlend mode="normal" in2="BackgroundImageFix" result="effect1_dropShadow_2196_33486"/>
<feBlend mode="normal" in="SourceGraphic" in2="effect1_dropShadow_2196_33486" result="shape"/>
</filter>
<radialGradient id="paint0_radial_2196_33486" cx="0" cy="0" r="1" gradientUnits="userSpaceOnUse" gradientTransform="translate(70.001 69.9979) scale(94.402 94.402)">
<stop stop-color="white"/>
<stop offset="0.08" stop-color="white" stop-opacity="0.96"/>
<stop offset="0.23" stop-color="white" stop-opacity="0.86"/>
<stop offset="0.41" stop-color="white" stop-opacity="0.7"/>
<stop offset="0.62" stop-color="white" stop-opacity="0.47"/>
<stop offset="0.86" stop-color="white" stop-opacity="0.18"/>
<stop offset="1" stop-color="white" stop-opacity="0"/>
</radialGradient>
</defs>
</svg>
