<svg width="375" height="450" viewBox="0 0 375 450" fill="none" xmlns="http://www.w3.org/2000/svg">
<g clip-path="url(#clip0_1203_40550)">
<rect width="375" height="450" fill="#FFF1D6"/>
<path d="M161.606 68.0908C146.324 68.5016 130.303 69.1064 117.085 76.7973C106.647 82.8679 98.7233 93.3088 96.1628 105.119C93.6022 116.929 96.5895 129.926 104.421 139.135C109.623 145.24 116.658 149.553 124.029 152.679C141.064 159.925 159.957 161.295 178.457 161.511C196.254 161.717 214.35 160.884 231.224 155.201C248.099 149.507 263.785 138.404 271.674 122.418C273.462 118.801 274.834 114.944 275.284 110.927C276.541 99.6418 270.267 88.733 262.204 80.7569C250.348 69.0379 234.131 61.8719 217.499 60.9819C209.852 60.5711 202.194 61.4497 194.593 62.3169C180.268 63.9601 165.897 65.6147 151.941 69.2205" fill="white"/>
<path d="M252.543 90.1911C255.934 106.383 229.671 125.462 193.881 132.799C158.092 140.136 126.293 127.345 122.902 111.153C119.511 94.9608 145.808 81.496 181.598 74.1588C217.387 66.8217 249.152 73.9991 252.543 90.1911Z" fill="white"/>
<path d="M251.435 90.8984C254.699 106.463 228.425 125.302 193.546 132.457C158.46 139.657 127.296 127.219 123.997 111.495C120.698 95.7708 146.522 82.7282 181.62 75.528C216.706 68.3277 248.147 75.1742 251.435 90.8984Z" fill="#FEFEFE"/>
<path d="M250.329 91.6176C253.455 106.554 227.192 125.154 193.213 132.115C158.831 139.167 128.301 127.083 125.106 111.826C121.911 96.5813 147.262 83.9495 181.645 76.8976C216.027 69.8457 247.134 76.3613 250.329 91.6062V91.6176Z" fill="#FDFDFD"/>
<path d="M249.222 92.325C252.22 106.623 225.946 124.994 192.879 131.772C159.2 138.676 129.304 126.946 126.213 112.168C123.122 97.3914 147.989 85.1818 181.668 78.2783C215.347 71.3747 246.119 77.548 249.21 92.325H249.222Z" fill="#FCFDFD"/>
<path d="M248.114 93.0438C250.974 106.714 224.712 124.846 192.555 131.441C159.58 138.208 130.319 126.82 127.331 112.511C124.333 98.2129 148.738 86.4141 181.714 79.6475C214.689 72.8808 245.127 78.7346 248.126 93.0324L248.114 93.0438Z" fill="#FBFCFC"/>
<path d="M247.018 93.7512C249.752 106.794 223.478 124.686 192.232 131.099C159.961 137.717 131.334 126.683 128.439 112.853C125.544 99.023 149.465 87.6464 181.737 81.0281C214.008 74.4098 244.112 79.9327 247.007 93.7512H247.018Z" fill="#FAFBFB"/>
<path d="M245.911 94.4589C248.506 106.874 222.243 124.526 191.898 130.745C160.33 137.215 132.348 126.535 129.546 113.184C126.743 99.8334 150.191 88.8676 181.771 82.3976C213.339 75.9277 243.108 81.1082 245.911 94.4589Z" fill="#F9FAFA"/>
<path d="M244.804 95.1778C247.272 106.954 220.998 124.378 191.575 130.414C160.71 136.747 133.364 126.409 130.665 113.526C127.966 100.644 150.941 90.0999 181.806 83.7669C212.671 77.4339 242.117 82.2949 244.815 95.1663L244.804 95.1778Z" fill="#F8F9F9"/>
<path d="M243.695 95.8852C246.025 107.034 219.762 124.218 191.239 130.072C161.078 136.257 134.365 126.272 131.77 113.869C129.175 101.465 151.666 91.3323 181.827 85.1476C211.988 78.9629 241.1 83.4816 243.695 95.8966V95.8852Z" fill="#F8F9F9"/>
<path d="M242.59 96.6039C244.793 107.125 218.518 124.07 190.906 129.741C161.449 135.777 135.371 126.147 132.868 114.211C130.365 102.275 152.383 92.5645 181.852 86.5281C211.321 80.4918 240.087 84.6796 242.59 96.6153V96.6039Z" fill="#F7F8F8"/>
<path d="M241.492 97.3114C243.569 107.193 217.294 123.91 190.582 129.387C161.828 135.287 136.384 125.998 133.985 114.542C131.586 103.085 153.131 93.7855 181.885 87.8861C210.639 81.9867 239.082 85.8435 241.481 97.3114H241.492Z" fill="#F6F7F7"/>
<path d="M240.386 98.0304C242.324 107.285 216.05 123.773 190.26 129.056C162.209 134.808 137.4 125.873 135.105 114.884C132.81 103.896 153.87 95.0179 181.921 89.2668C209.971 83.5158 238.079 87.0417 240.386 98.0304Z" fill="#F5F6F6"/>
<path d="M239.277 98.7379C241.088 107.364 214.814 123.614 189.924 128.714C162.577 134.317 138.413 125.736 136.21 115.227C134.007 104.717 154.595 96.2503 181.954 90.6476C209.312 85.0449 237.086 88.2285 239.277 98.7493V98.7379Z" fill="#F4F5F5"/>
<path d="M238.172 99.4452C239.845 107.444 213.571 123.454 189.592 128.372C162.948 133.838 139.419 125.599 137.309 115.557C135.21 105.516 155.325 97.4711 181.968 92.0053C208.611 86.5395 236.062 89.4037 238.161 99.4452H238.172Z" fill="#F3F4F4"/>
<path d="M237.066 100.164C238.611 107.524 212.337 123.305 189.27 128.029C163.33 133.347 140.435 125.462 138.428 115.9C136.421 106.337 156.064 98.7036 182.015 93.3861C207.966 88.0687 235.071 90.6019 237.077 100.164H237.066Z" fill="#F2F4F4"/>
<path d="M235.968 100.871C237.375 107.604 211.112 123.145 188.944 127.687C163.708 132.868 141.448 125.325 139.544 116.23C137.641 107.136 156.799 99.9244 182.047 94.7553C207.283 89.5748 234.065 91.777 235.968 100.871Z" fill="#F1F3F3"/>
<path d="M234.863 101.59C236.143 107.695 209.869 122.997 188.612 127.356C164.068 132.388 142.454 125.199 140.654 116.584C138.844 107.958 157.54 101.168 182.073 96.136C206.605 91.1039 233.052 92.9752 234.863 101.59Z" fill="#F0F2F2"/>
<path d="M203.035 116.393C198.098 119.143 201.109 117.625 196.092 119.93C191.074 122.235 186.069 124.198 181.074 126.252C177.476 127.724 173.6 129.127 169.448 129.241C165.434 129.344 161.836 128.146 158.779 126.548C152.263 123.137 147.372 118.082 142.955 111.429C140.487 107.709 138.388 103.43 137.003 99.0026C135.562 94.3812 134.627 89.6001 136.081 84.8646C137.672 79.6613 141.202 76.3065 145.031 72.6778C151.709 66.3562 159.541 61.6549 167.361 56.8396C169.448 55.63 170.509 55.0024 172.528 53.8727C172.931 53.6445 179.494 49.936 179.852 49.7534C180.625 49.3769 181.386 49.0117 182.136 48.658C186.242 46.7524 189.909 44.7783 194.719 43.6258C200.151 42.325 206.899 42.0739 213.127 44.8696C219.367 47.6652 224.027 52.1269 228.029 56.9651C233.992 64.1881 239.632 73.6021 238.444 83.7007C237.44 92.236 231.431 98.4777 224.788 103.419C221.697 105.724 211.489 111.634 208.156 113.54" fill="url(#paint0_linear_1203_40550)"/>
<path d="M202.77 94.9175C200.809 98.9569 205.238 103.943 209.425 102.289" stroke="#414658" stroke-width="2.82989" stroke-linecap="round" stroke-linejoin="round"/>
<path d="M194.357 86.8715C195.34 85.7459 194.612 83.5311 192.732 81.9245C190.852 80.3178 188.532 79.9278 187.549 81.0534C186.566 82.1789 187.294 84.3937 189.174 86.0004C191.054 87.607 193.374 87.997 194.357 86.8715Z" stroke="white" stroke-width="2.27076" stroke-miterlimit="10"/>
<path d="M204.408 81.3958C202.886 83.5296 202.586 87.2153 205.423 88.4363C206.899 89.0638 208.976 88.9383 210.29 87.9798" stroke="#414658" stroke-width="2.82989" stroke-linecap="round" stroke-linejoin="round"/>
<path d="M215.757 94.4497C214.176 96.5265 213.381 99.79 215.561 100.44C216.691 100.771 218.444 100.361 219.667 99.3335" stroke="#414658" stroke-width="2.82989" stroke-linecap="round" stroke-linejoin="round"/>
<path d="M148.493 98.7858C147.604 92.3729 152.679 86.6447 157.547 83.1529C169.196 74.7774 182.31 68.2618 194.559 60.7991C200.003 57.4785 206.554 54.8997 212.69 56.657" stroke="white" stroke-width="2.27076" stroke-linecap="round" stroke-linejoin="round"/>
<path d="M66.2524 274.502H121.551V331.501C121.551 334.255 119.325 336.482 116.57 336.482H71.2334C68.4792 336.482 66.2524 334.255 66.2524 331.501V274.502Z" fill="#91BDD8"/>
<path d="M288.933 274.502H347.103V331.501C347.103 334.255 344.877 336.482 342.122 336.482H293.895C291.14 336.482 288.914 334.255 288.914 331.501V274.502H288.933Z" fill="#91BDD8"/>
<path d="M347.103 274.502H66.2524V289.25H347.103V274.502Z" fill="#A0C8D8"/>
<path d="M70.6099 313.081H117.216" stroke="#809FAF" stroke-width="1.42593" stroke-miterlimit="10"/>
<path d="M294.736 315.718H341.323" stroke="#809FAF" stroke-width="1.42593" stroke-miterlimit="10"/>
<path d="M347.122 274.502H66.2524L71.7413 216.879C72.0538 213.558 75.2378 211.019 79.0858 211.019H334.308C338.137 211.019 341.321 213.558 341.653 216.879L347.142 274.502H347.122Z" fill="#ACD4E8"/>
<path d="M301.65 217.66H277.839L281.941 228.872C282.136 231.04 285.535 232.779 289.715 232.779C293.895 232.779 297.314 231.04 297.489 228.872L301.591 217.66H301.65Z" fill="#F4CBA2"/>
<path d="M289.757 208.187C281.69 208.187 275.146 210.277 275.146 212.835V215.941C275.146 218.52 281.69 220.59 289.757 220.59C297.824 220.59 304.368 218.5 304.368 215.941V212.835C304.368 210.257 297.824 208.187 289.757 208.187Z" fill="#F9DDC5"/>
<path d="M289.755 216.722C296.465 216.722 301.905 214.991 301.905 212.855C301.905 210.719 296.465 208.987 289.755 208.987C283.045 208.987 277.605 210.719 277.605 212.855C277.605 214.991 283.045 216.722 289.755 216.722Z" fill="#84715E"/>
<path d="M279.404 208.987C279.716 210.96 281.513 213.07 284.17 214.261C286.826 215.453 289.581 215.433 291.28 214.359C290.968 212.386 289.17 210.276 286.514 209.085C283.857 207.893 281.103 207.913 279.404 208.987Z" fill="#61C66A"/>
<path d="M289.109 214.32C290.867 215.277 293.622 215.14 296.2 213.753C298.778 212.367 300.439 210.179 300.615 208.186C298.857 207.229 296.102 207.366 293.524 208.753C290.946 210.14 289.285 212.328 289.109 214.32Z" fill="#61C66A"/>
<path d="M294.207 198.459C292.586 200.354 291.199 202.483 290.398 204.866C289.539 207.405 289.597 209.984 289.988 212.601C290.047 212.992 290.105 213.383 290.183 213.773" stroke="#61C66A" stroke-width="0.6446" stroke-miterlimit="10"/>
<path d="M292.518 198.688C293.278 197.371 292.191 195.319 290.089 194.105C287.987 192.892 285.666 192.976 284.905 194.293C284.145 195.61 285.232 197.662 287.335 198.876C289.437 200.089 291.757 200.005 292.518 198.688Z" fill="#FFEA83"/>
<path d="M290.084 203.272C292.186 202.059 293.274 200.007 292.513 198.69C291.753 197.372 289.432 197.288 287.33 198.502C285.228 199.716 284.14 201.767 284.901 203.085C285.662 204.402 287.982 204.486 290.084 203.272Z" fill="#FFEA83"/>
<path d="M292.509 207.483C294.03 207.483 295.263 205.515 295.263 203.088C295.263 200.661 294.03 198.693 292.509 198.693C290.987 198.693 289.754 200.661 289.754 203.088C289.754 205.515 290.987 207.483 292.509 207.483Z" fill="#FFEA83"/>
<path d="M300.119 203.096C300.88 201.778 299.792 199.726 297.69 198.513C295.588 197.299 293.268 197.383 292.507 198.701C291.746 200.018 292.834 202.07 294.936 203.283C297.038 204.497 299.359 204.413 300.119 203.096Z" fill="#FFEA83"/>
<path d="M297.688 198.89C299.79 197.676 300.878 195.625 300.117 194.307C299.357 192.99 297.036 192.906 294.934 194.12C292.832 195.333 291.744 197.385 292.505 198.702C293.266 200.02 295.586 200.104 297.688 198.89Z" fill="#FFEA83"/>
<path d="M292.509 198.693C294.03 198.693 295.263 196.725 295.263 194.298C295.263 191.871 294.03 189.903 292.509 189.903C290.987 189.903 289.754 191.871 289.754 194.298C289.754 196.725 290.987 198.693 292.509 198.693Z" fill="#FFEA83"/>
<path d="M292.509 198.01C292.692 198.01 292.841 197.59 292.841 197.072C292.841 196.554 292.692 196.135 292.509 196.135C292.325 196.135 292.177 196.554 292.177 197.072C292.177 197.59 292.325 198.01 292.509 198.01Z" fill="white"/>
<path d="M292.387 198.04C292.479 197.881 292.19 197.543 291.741 197.284C291.293 197.025 290.855 196.944 290.763 197.103C290.672 197.261 290.961 197.6 291.409 197.859C291.858 198.118 292.295 198.199 292.387 198.04Z" fill="white"/>
<path d="M291.729 198.929C292.177 198.67 292.466 198.332 292.374 198.173C292.283 198.014 291.845 198.095 291.396 198.354C290.948 198.613 290.659 198.951 290.751 199.11C290.842 199.269 291.28 199.188 291.729 198.929Z" fill="white"/>
<path d="M292.49 200.1C292.673 200.1 292.822 199.68 292.822 199.162C292.822 198.644 292.673 198.224 292.49 198.224C292.306 198.224 292.158 198.644 292.158 199.162C292.158 199.68 292.306 200.1 292.49 200.1Z" fill="white"/>
<path d="M294.214 199.131C294.306 198.972 294.017 198.633 293.568 198.375C293.12 198.116 292.682 198.035 292.59 198.193C292.499 198.352 292.788 198.691 293.236 198.95C293.685 199.209 294.123 199.29 294.214 199.131Z" fill="white"/>
<path d="M293.564 197.876C294.012 197.617 294.302 197.279 294.21 197.12C294.118 196.961 293.68 197.042 293.232 197.301C292.783 197.56 292.494 197.898 292.586 198.057C292.678 198.216 293.116 198.135 293.564 197.876Z" fill="white"/>
<path d="M259.55 264.904L266.379 262.923L256.043 227.298L249.214 229.279L259.55 264.904Z" fill="#FFEA83"/>
<path d="M251.347 224.251L251.534 224.197C251.793 224.122 251.942 223.851 251.867 223.592L251.111 220.984C251.036 220.725 250.765 220.576 250.506 220.651L250.318 220.706C250.059 220.781 249.91 221.052 249.985 221.311L250.742 223.918C250.817 224.177 251.088 224.326 251.347 224.251Z" fill="#FFEA83"/>
<path d="M250.492 223.051L249.203 229.302L252.621 228.306L256.039 227.31L251.625 222.719L250.492 223.051Z" fill="#F4CBA2"/>
<path d="M249.281 229.536L249.359 229.829C249.359 229.829 249.906 229.048 250.043 229.048C250.18 229.048 250.688 229.634 250.903 229.595C251.117 229.556 251.352 228.677 251.43 228.638C251.508 228.599 252.348 229.302 252.504 229.282C252.661 229.263 253.09 228.15 253.227 228.111C253.364 228.071 254.184 228.853 254.419 228.911C254.731 229.009 254.751 227.681 254.907 227.603C255.063 227.524 255.708 228.071 255.805 228.032C255.903 227.993 256.02 227.271 256.02 227.271L249.184 229.263L249.242 229.497L249.281 229.536Z" fill="#F4CBA2"/>
<path d="M265.183 265.204L266.394 262.938L264.167 261.649L260.749 262.645L259.558 264.911L261.784 266.2L265.183 265.204Z" fill="#FFEA83"/>
<path d="M264.537 264.833L265.377 263.231L263.814 262.313L261.392 263.016L260.552 264.618L262.134 265.536L264.537 264.833Z" fill="#F4CBA2"/>
<path d="M263.234 264.806C263.752 264.656 264.087 264.24 263.982 263.877C263.876 263.515 263.371 263.343 262.853 263.493C262.335 263.643 262 264.059 262.106 264.422C262.211 264.784 262.716 264.956 263.234 264.806Z" fill="#FFEA83"/>
<path d="M194.415 221.606V259.383" stroke="#E5E6E7" stroke-width="0.4688" stroke-linecap="round" stroke-linejoin="round"/>
<path d="M98.4637 229.829C101.745 228.462 107.449 227.563 113.954 227.563C120.458 227.563 126.162 228.462 129.444 229.829H132.374V232.505C132.374 235.24 124.13 237.447 113.954 237.447C103.777 237.447 95.5337 235.24 95.5337 232.505V229.829H98.4637Z" fill="#E0C0BD"/>
<path d="M134.796 174.511L136.554 177.558C136.554 177.558 117.978 187.696 116.435 189.884C114.892 192.072 115.517 217.445 115.517 217.445H112.021C112.021 217.445 111.708 190.587 112.958 188.009C114.208 185.43 134.796 174.511 134.796 174.511Z" fill="#E5D1B3"/>
<path d="M109.969 229.556H117.899C119.169 229.556 120.165 228.501 120.087 227.251L119.521 219.145C119.443 218.012 118.485 217.133 117.333 217.133H110.516C109.363 217.133 108.406 218.012 108.328 219.145L107.762 227.251C107.683 228.501 108.68 229.556 109.949 229.556H109.969Z" fill="#F4D8D3"/>
<path d="M113.935 234.771C124.108 234.771 132.355 232.559 132.355 229.83C132.355 227.1 124.108 224.888 113.935 224.888C103.762 224.888 95.5151 227.1 95.5151 229.83C95.5151 232.559 103.762 234.771 113.935 234.771Z" fill="#F4D8D3"/>
<path d="M139.092 188.258L141.718 187.195C143.567 186.445 144.46 184.338 143.71 182.489L140.814 175.337C140.064 173.488 137.958 172.595 136.108 173.345L133.483 174.408C131.633 175.157 130.741 177.264 131.49 179.114L134.386 186.265C135.136 188.115 137.243 189.007 139.092 188.258Z" fill="#F4D8D3"/>
<path d="M132.157 200.197L128.876 185.352C128.505 184.16 129.364 182.754 130.829 182.168L143.584 177.011C145.069 176.406 146.651 176.816 147.218 177.929L155.207 190.88C155.207 190.88 155.246 191.016 155.265 191.075L132.236 200.412C132.236 200.412 132.177 200.295 132.157 200.236V200.197Z" fill="#F4D8D3"/>
<path d="M144.54 197.684C150.91 195.105 155.718 192.138 155.281 191.058C154.844 189.978 149.326 191.194 142.956 193.774C136.587 196.354 131.778 199.32 132.216 200.4C132.653 201.48 138.171 200.264 144.54 197.684Z" fill="#FFFCF0"/>
<path d="M242.19 236.627H230.04L228.439 221.293C228.439 219.399 226.954 217.855 225.118 217.855H161.185C159.349 217.855 157.865 219.399 157.865 221.293L153.47 263.466C153.47 265.361 154.954 266.904 156.79 266.904C168.003 265.595 178.804 265.907 189.938 266.552C190.153 267.099 190.7 267.49 191.325 267.49H196.756C197.342 267.49 197.83 267.138 198.084 266.65C208.573 266.22 218.34 265.693 229.533 266.884C231.369 266.884 232.853 265.341 232.853 263.446L230.861 244.538H242.171C243.304 244.538 244.222 243.6 244.222 242.467V238.698C244.222 237.565 243.304 236.627 242.171 236.627H242.19Z" fill="#FFF1D6"/>
<path d="M240.766 242.37C241.996 242.37 242.993 241.373 242.993 240.143C242.993 238.913 241.996 237.916 240.766 237.916C239.537 237.916 238.54 238.913 238.54 240.143C238.54 241.373 239.537 242.37 240.766 242.37Z" fill="white"/>
<path d="M225.197 221.372C225.197 220.746 223.888 220.063 223.185 219.867C212.559 217.074 205.351 217.426 194.725 220.239C194.08 220.414 193.553 220.473 193.514 221.02C193.514 220.649 193.084 220.453 192.361 220.239C181.735 217.055 174.781 216.723 164.155 219.926C163.491 220.063 161.889 220.766 161.889 221.391L158.061 263.29C158.061 263.915 158.588 264.423 159.233 264.423C169.859 261.18 181.735 261.18 192.361 264.423H194.705C205.702 262.079 217.5 262.079 227.775 264.423C228.42 264.423 228.947 263.915 228.947 263.29L225.177 221.391L225.197 221.372Z" fill="#E5E6E7"/>
<path d="M224.102 220.883C224.102 220.278 223.614 219.985 222.969 219.789C212.695 216.742 204.94 216.762 194.685 219.789C194.06 219.945 193.552 220.004 193.532 220.531C193.532 220.18 193.122 220.004 192.419 219.789C182.144 216.762 174.8 216.762 164.545 219.789C163.9 219.985 163.412 220.278 163.412 220.883L160.501 260.731C160.501 261.337 161.009 261.825 161.634 261.825C171.479 258.856 181.304 258.739 191.149 261.454C192.009 261.688 192.888 261.825 193.786 261.825C194.411 261.825 195.017 261.766 195.642 261.63C205.916 259.579 215.878 259.637 225.528 261.825C226.153 261.825 226.661 261.337 226.661 260.731L224.141 220.883H224.102Z" fill="white"/>
<path d="M198.396 231.607C198.299 230.982 198.182 230.376 198.045 229.771C197.303 226.352 196.228 223.012 195.154 219.672L194.373 219.887C194.373 219.887 194.099 219.926 193.787 220.082C193.474 220.238 193.533 220.551 193.533 220.551C194.685 224.555 196.248 228.638 196.756 232.779C197.205 236.392 197.088 239.987 196.99 243.62C196.892 247.214 196.697 250.828 196.248 254.402C195.935 256.902 195.466 259.364 195.115 261.844C194.959 262.919 194.744 264.071 194.705 265.185C194.666 266.181 194.646 267.763 195.33 268.564C195.72 268.095 195.838 267.294 196.033 266.728C196.365 267.216 196.619 267.783 197.068 268.193C196.99 268.115 197.107 267.197 197.107 267.06C197.107 266.571 197.049 266.083 197.068 265.595C197.146 261.727 197.361 257.781 197.81 253.933C198.182 250.339 198.592 246.784 198.787 243.171L198.846 242.174C199.041 238.639 199.002 235.103 198.416 231.587L198.396 231.607Z" fill="#FFEA83"/>
<path d="M56.4076 294.789H42.6338V311.084H56.4076V294.789Z" fill="#BAA899"/>
<path d="M32.9123 326.874H31.8233C29.5624 326.874 27.7295 328.707 27.7295 330.968V355.147C27.7295 357.408 29.5624 359.241 31.8233 359.241H32.9123C35.1733 359.241 37.0062 357.408 37.0062 355.147V330.968C37.0062 328.707 35.1733 326.874 32.9123 326.874Z" fill="#BAA899"/>
<path d="M53.3405 335.122H52.2112C49.8277 335.122 47.8955 337.054 47.8955 339.438V365.231C47.8955 367.615 49.8277 369.547 52.2112 369.547H53.3405C55.724 369.547 57.6562 367.615 57.6562 365.231V339.438C57.6562 337.054 55.724 335.122 53.3405 335.122Z" fill="#BAA899"/>
<path d="M69.778 321.348H68.6487C66.2652 321.348 64.333 323.28 64.333 325.664V351.457C64.333 353.841 66.2652 355.773 68.6487 355.773H69.778C72.1615 355.773 74.0937 353.841 74.0937 351.457V325.664C74.0937 323.28 72.1615 321.348 69.778 321.348Z" fill="#BAA899"/>
<path d="M90.6904 329.637H89.5409C87.1128 329.637 85.1445 331.605 85.1445 334.033V359.665C85.1445 362.093 87.1128 364.061 89.5409 364.061H90.6904C93.1184 364.061 95.0867 362.093 95.0867 359.665V334.033C95.0867 331.605 93.1184 329.637 90.6904 329.637Z" fill="#BAA899"/>
<path d="M103.052 329.737C102.91 337.26 84.7403 343.027 62.4562 342.624C40.172 342.221 22.2237 335.787 22.3648 328.265C22.3648 327.217 22.022 321.651 22.5867 320.461C25.6722 313.826 43.802 315.036 62.9603 315.379C82.4212 315.742 101.519 314.895 103.132 321.993C103.374 323.082 103.072 328.79 103.052 329.758V329.737Z" fill="#CEB79F"/>
<path d="M103.188 322.781C103.327 315.254 85.376 308.817 63.0932 308.405C40.8104 307.992 22.6337 313.761 22.4944 321.288C22.3551 328.816 40.306 335.253 62.5888 335.665C84.8716 336.078 103.048 330.309 103.188 322.781Z" fill="#DDC8B1"/>
<path d="M78.9715 271.92C78.3463 268.834 77.096 264.72 74.797 263.631C71.409 262.038 65.8833 261.574 64.7338 261.493C64.7338 261.493 64.7338 261.493 64.7136 261.493C64.5926 261.493 64.512 261.493 64.512 261.493H64.3103C63.8666 261.473 63.4431 261.453 62.9995 261.453L34.1813 262.139C24.9046 262.361 17.5438 270.064 17.7656 279.361L17.8665 283.778C18.0278 290.271 21.8393 295.817 27.2843 298.479C28.2725 298.963 29.3413 299.366 30.4303 299.649C31.9226 300.032 38.3558 301.383 39.9691 301.363L63.8868 299.508C73.1635 299.286 80.5243 291.582 80.3025 282.285L80.2016 277.869C80.1411 275.771 79.6975 273.775 78.9513 271.94L78.9715 271.92Z" fill="#CEB79F"/>
<path d="M69.1815 262.638L40.3717 263.332C31.0856 263.555 23.739 271.265 23.9627 280.551L24.069 284.966C24.2927 294.252 32.002 301.599 41.2882 301.375L70.098 300.681C79.3842 300.457 86.7308 292.748 86.5071 283.462L86.4007 279.047C86.177 269.761 78.4677 262.414 69.1815 262.638Z" fill="#DDC8B1"/>
</g>
<defs>
<linearGradient id="paint0_linear_1203_40550" x1="183.773" y1="79.8552" x2="223.379" y2="155.529" gradientUnits="userSpaceOnUse">
<stop stop-color="#8CE3FF"/>
<stop offset="1" stop-color="#57C2FF"/>
</linearGradient>
<clipPath id="clip0_1203_40550">
<rect width="375" height="450" fill="white"/>
</clipPath>
</defs>
</svg>
