<svg width="130" height="130" viewBox="0 0 130 130" fill="none" xmlns="http://www.w3.org/2000/svg">
<g clip-path="url(#clip0_2196_33418)">
<path d="M8.87733 69.3828H121.104C121.94 69.3828 122.609 70.0514 122.609 70.8871V89.05H7.37305V70.8871C7.37305 70.0514 8.04162 69.3828 8.87733 69.3828Z" fill="#E2D0BF"/>
<path d="M7.37305 89.0499H36.4002V108.457C36.4002 108.94 36.0102 109.348 35.5088 109.348H8.26448C7.78162 109.348 7.37305 108.958 7.37305 108.457V89.0499Z" fill="#DDC8B1"/>
<path d="M93.6026 89.0499H122.63V108.457C122.63 108.94 122.24 109.348 121.738 109.348H94.4754C93.9926 109.348 93.584 108.958 93.584 108.457V89.0499H93.6026Z" fill="#DDC8B1"/>
<path d="M93.6004 89.0499H36.4004V97.5928H93.6004V89.0499Z" fill="#D6BEA5"/>
<g filter="url(#filter0_d_2196_33418)">
<path d="M74.1517 19.4316C74.7841 19.4316 75.2925 19.94 75.2925 20.5724C75.2925 21.2048 74.7841 21.7132 74.1517 21.7132C73.9037 21.7132 73.6805 21.614 73.4821 21.4776L62.9793 30.5916H93.3965C94.6241 30.5916 95.6161 31.5836 95.6161 32.8112V68.3744C95.6161 69.602 94.6241 70.594 93.3965 70.594H84.9273L86.9237 78.4804C87.1097 79.2368 86.6509 80.0056 85.9069 80.1916L84.5305 80.5388C84.4189 80.5636 84.2949 80.576 84.1833 80.576C83.5509 80.576 82.9805 80.1544 82.8193 79.5096L80.5625 70.5816H48.3473L46.0905 79.5096C45.9293 80.142 45.3465 80.576 44.7265 80.576C44.6149 80.576 44.5033 80.5636 44.3793 80.5388L43.0029 80.1916C42.2465 80.0056 41.7877 79.2368 41.9861 78.4804L43.9825 70.594H36.6169C35.3893 70.594 34.3973 69.602 34.3973 68.3744V32.8112C34.3973 31.5836 35.3893 30.5916 36.6169 30.5916H62.2353L51.6581 21.428C51.4597 21.6016 51.1993 21.7256 50.9141 21.7256C50.2817 21.7256 49.7733 21.2172 49.7733 20.5848C49.7733 19.9524 50.2817 19.444 50.9141 19.444C51.5465 19.444 52.0549 19.9524 52.0549 20.5848C52.0549 20.746 52.0177 20.8948 51.9681 21.0312L62.6197 30.2692L73.1721 21.118C73.0853 20.9568 73.0233 20.7832 73.0233 20.5848C73.0233 19.9524 73.5317 19.444 74.1641 19.444M74.1641 13.244C71.0269 13.244 68.3361 15.228 67.2945 18.0056L62.6197 22.0604L57.7093 17.8072C56.6181 15.1288 53.9769 13.244 50.9141 13.244C46.8717 13.244 43.5733 16.5424 43.5733 20.5848C43.5733 21.9736 43.9701 23.288 44.6397 24.3916H36.6169C31.9793 24.3916 28.1973 28.1736 28.1973 32.8112V68.3744C28.1973 72.8136 31.6569 76.4716 36.0217 76.7692L35.9721 76.9552C34.9429 81.0224 37.4105 85.164 41.4777 86.1932L42.8541 86.5404C43.4617 86.6892 44.0941 86.776 44.7141 86.776C48.1985 86.776 51.2365 84.4076 52.0921 81.0348L53.1709 76.794H75.7389L76.8177 81.0348C77.6733 84.42 80.7113 86.776 84.1957 86.776C84.8281 86.776 85.4481 86.7016 86.0557 86.5404L87.4321 86.1932C91.4993 85.164 93.9669 81.01 92.9377 76.9552L92.9005 76.794H93.3965C98.0341 76.794 101.816 73.012 101.816 68.3744V32.8112C101.816 28.1736 98.0341 24.3916 93.3965 24.3916H80.4261C81.1081 23.2756 81.4925 21.9736 81.4925 20.5848C81.4925 16.5424 78.1941 13.244 74.1517 13.244H74.1641Z" fill="url(#paint0_radial_2196_33418)"/>
</g>
<path d="M93.3964 30.5826H36.6044C35.3785 30.5826 34.3848 31.5764 34.3848 32.8022V68.3654C34.3848 69.5913 35.3785 70.585 36.6044 70.585H93.3964C94.6222 70.585 95.616 69.5913 95.616 68.3654V32.8022C95.616 31.5764 94.6222 30.5826 93.3964 30.5826Z" fill="#949992"/>
<path d="M74.6726 34.5646H40.5106C39.5792 34.5646 38.8242 35.3196 38.8242 36.251V64.9322C38.8242 65.8636 39.5792 66.6186 40.5106 66.6186H74.6726C75.604 66.6186 76.359 65.8636 76.359 64.9322V36.251C76.359 35.3196 75.604 34.5646 74.6726 34.5646Z" fill="white"/>
<path d="M51 20.5278L62.6064 30.5842" stroke="#949992" stroke-width="0.496" stroke-linecap="round" stroke-linejoin="round"/>
<path d="M74.2014 20.5278L62.6074 30.5842" stroke="#949992" stroke-width="0.496" stroke-linecap="round" stroke-linejoin="round"/>
<path d="M86.1057 45.6226C88.3656 45.6226 90.1977 43.7905 90.1977 41.5306C90.1977 39.2706 88.3656 37.4386 86.1057 37.4386C83.8457 37.4386 82.0137 39.2706 82.0137 41.5306C82.0137 43.7905 83.8457 45.6226 86.1057 45.6226Z" fill="white"/>
<path d="M86.1057 55.7056C88.3656 55.7056 90.1977 53.8736 90.1977 51.6136C90.1977 49.3537 88.3656 47.5216 86.1057 47.5216C83.8457 47.5216 82.0137 49.3537 82.0137 51.6136C82.0137 53.8736 83.8457 55.7056 86.1057 55.7056Z" fill="white"/>
<path d="M92.1557 59.0659H79.5449C79.1134 59.0659 78.7637 59.4157 78.7637 59.8471V60.6531C78.7637 61.0846 79.1134 61.4343 79.5449 61.4343H92.1557C92.5871 61.4343 92.9369 61.0846 92.9369 60.6531V59.8471C92.9369 59.4157 92.5871 59.0659 92.1557 59.0659Z" fill="white"/>
<path d="M92.1557 62.5372H79.5449C79.1134 62.5372 78.7637 62.887 78.7637 63.3184V64.1244C78.7637 64.5559 79.1134 64.9056 79.5449 64.9056H92.1557C92.5871 64.9056 92.9369 64.5559 92.9369 64.1244V63.3184C92.9369 62.887 92.5871 62.5372 92.1557 62.5372Z" fill="white"/>
<path d="M47.5279 68.0381L46.1575 67.6914C45.4007 67.4999 44.6319 67.9582 44.4403 68.715L41.9765 78.4521C41.785 79.209 42.2433 79.9778 43.0001 80.1693L44.3705 80.5161C45.1274 80.7076 45.8962 80.2493 46.0877 79.4924L48.5516 69.7553C48.7431 68.9985 48.2848 68.2297 47.5279 68.0381Z" fill="#949992"/>
<path d="M84.5346 80.5351L85.905 80.1883C86.6618 79.9968 87.1201 79.228 86.9286 78.4711L84.4648 68.734C84.2732 67.9772 83.5044 67.5189 82.7476 67.7104L81.3772 68.0572C80.6203 68.2487 80.162 69.0175 80.3535 69.7743L82.8174 79.5114C83.0089 80.2683 83.7777 80.7266 84.5346 80.5351Z" fill="#949992"/>
<path d="M50.9006 21.7156C51.5306 21.7156 52.0414 21.2048 52.0414 20.5748C52.0414 19.9447 51.5306 19.434 50.9006 19.434C50.2705 19.434 49.7598 19.9447 49.7598 20.5748C49.7598 21.2048 50.2705 21.7156 50.9006 21.7156Z" fill="#949992"/>
<path d="M74.1506 21.7156C74.7806 21.7156 75.2914 21.2048 75.2914 20.5748C75.2914 19.9447 74.7806 19.434 74.1506 19.434C73.5205 19.434 73.0098 19.9447 73.0098 20.5748C73.0098 21.2048 73.5205 21.7156 74.1506 21.7156Z" fill="#949992"/>
</g>
<defs>
<filter id="filter0_d_2196_33418" x="25.7173" y="10.764" width="83.5391" height="83.452" filterUnits="userSpaceOnUse" color-interpolation-filters="sRGB">
<feFlood flood-opacity="0" result="BackgroundImageFix"/>
<feColorMatrix in="SourceAlpha" type="matrix" values="0 0 0 0 0 0 0 0 0 0 0 0 0 0 0 0 0 0 127 0" result="hardAlpha"/>
<feOffset dx="2.48" dy="2.48"/>
<feGaussianBlur stdDeviation="2.48"/>
<feColorMatrix type="matrix" values="0 0 0 0 0.137255 0 0 0 0 0.137255 0 0 0 0 0.137255 0 0 0 0.1 0"/>
<feBlend mode="normal" in2="BackgroundImageFix" result="effect1_dropShadow_2196_33418"/>
<feBlend mode="normal" in="SourceGraphic" in2="effect1_dropShadow_2196_33418" result="shape"/>
</filter>
<radialGradient id="paint0_radial_2196_33418" cx="0" cy="0" r="1" gradientUnits="userSpaceOnUse" gradientTransform="translate(65.0005 49.9976) scale(79.2484 79.2484)">
<stop stop-color="white"/>
<stop offset="0.08" stop-color="white" stop-opacity="0.96"/>
<stop offset="0.23" stop-color="white" stop-opacity="0.86"/>
<stop offset="0.41" stop-color="white" stop-opacity="0.7"/>
<stop offset="0.62" stop-color="white" stop-opacity="0.47"/>
<stop offset="0.86" stop-color="white" stop-opacity="0.18"/>
<stop offset="1" stop-color="white" stop-opacity="0"/>
</radialGradient>
<clipPath id="clip0_2196_33418">
<rect width="130" height="130" fill="white"/>
</clipPath>
</defs>
</svg>
