<svg width="140" height="140" viewBox="0 0 140 140" fill="none" xmlns="http://www.w3.org/2000/svg">
<g filter="url(#filter0_d_2196_33407)">
<path d="M99.7504 22.0236H40.0263C33.3304 22.0236 27.9023 27.4517 27.9023 34.1476V105.856C27.9023 112.551 33.3304 117.98 40.0263 117.98H99.7504C106.446 117.98 111.874 112.551 111.874 105.856V34.1476C111.874 27.4517 106.446 22.0236 99.7504 22.0236Z" fill="url(#paint0_radial_2196_33407)"/>
</g>
<path d="M101.192 29.0231H38.5843C36.5508 29.0231 34.9023 30.6716 34.9023 32.7051V107.297C34.9023 109.331 36.5508 110.979 38.5843 110.979H101.192C103.226 110.979 104.874 109.331 104.874 107.297V32.7051C104.874 30.6716 103.226 29.0231 101.192 29.0231Z" fill="#DDC8B1"/>
<path d="M96.7109 34.2722H43.0629C41.0293 34.2722 39.3809 35.9207 39.3809 37.9542V102.06C39.3809 104.094 41.0293 105.742 43.0629 105.742H96.7109C98.7444 105.742 100.393 104.094 100.393 102.06V37.9542C100.393 35.9207 98.7444 34.2722 96.7109 34.2722Z" fill="#F2BFB9"/>
<path d="M86.8278 41.7218H52.9758C50.3238 41.7218 48.1738 43.8717 48.1738 46.5238V78.0938C48.1738 80.7459 50.3238 82.8958 52.9758 82.8958H86.8278C89.4799 82.8958 91.6298 80.7459 91.6298 78.0938V46.5238C91.6298 43.8717 89.4799 41.7218 86.8278 41.7218Z" fill="white"/>
<path d="M69.8882 98.0823C73.1897 98.0823 75.8662 95.4059 75.8662 92.1043C75.8662 88.8028 73.1897 86.1263 69.8882 86.1263C66.5866 86.1263 63.9102 88.8028 63.9102 92.1043C63.9102 95.4059 66.5866 98.0823 69.8882 98.0823Z" fill="white"/>
<path d="M72.6877 91.5478L68.9917 89.4198C68.5577 89.1678 68.0117 89.4758 68.0117 89.9798V94.2498C68.0117 94.7538 68.5577 95.0618 68.9917 94.8098L72.6877 92.6818C73.1217 92.4298 73.1217 91.7998 72.6877 91.5618V91.5478Z" fill="#F2BFB9"/>
<path d="M83.2852 92.8492L80.3452 91.1552C79.9112 90.9032 79.3652 91.2112 79.3652 91.7152V95.1032C79.3652 95.6072 79.9112 95.9152 80.3452 95.6632L83.2852 93.9692C83.7192 93.7172 83.7192 93.0872 83.2852 92.8492Z" fill="white"/>
<path d="M84.6152 90.9298V95.8998" stroke="white" stroke-width="0.35" stroke-linecap="round" stroke-linejoin="round"/>
<path d="M56.4896 92.8492L59.4296 91.1552C59.8636 90.9032 60.4096 91.2112 60.4096 91.7152V95.1032C60.4096 95.6072 59.8636 95.9152 59.4296 95.6632L56.4896 93.9692C56.0556 93.7172 56.0556 93.0872 56.4896 92.8492Z" fill="white"/>
<path d="M55.1738 90.9298V95.8998" stroke="white" stroke-width="0.35" stroke-linecap="round" stroke-linejoin="round"/>
<defs>
<filter id="filter0_d_2196_33407" x="25.1023" y="19.2236" width="95.1727" height="107.156" filterUnits="userSpaceOnUse" color-interpolation-filters="sRGB">
<feFlood flood-opacity="0" result="BackgroundImageFix"/>
<feColorMatrix in="SourceAlpha" type="matrix" values="0 0 0 0 0 0 0 0 0 0 0 0 0 0 0 0 0 0 127 0" result="hardAlpha"/>
<feOffset dx="2.8" dy="2.8"/>
<feGaussianBlur stdDeviation="2.8"/>
<feColorMatrix type="matrix" values="0 0 0 0 0.137255 0 0 0 0 0.137255 0 0 0 0 0.137255 0 0 0 0.1 0"/>
<feBlend mode="normal" in2="BackgroundImageFix" result="effect1_dropShadow_2196_33407"/>
<feBlend mode="normal" in="SourceGraphic" in2="effect1_dropShadow_2196_33407" result="shape"/>
</filter>
<radialGradient id="paint0_radial_2196_33407" cx="0" cy="0" r="1" gradientUnits="userSpaceOnUse" gradientTransform="translate(69.8883 70.0016) scale(93.926 93.926)">
<stop stop-color="white"/>
<stop offset="0.08" stop-color="white" stop-opacity="0.96"/>
<stop offset="0.23" stop-color="white" stop-opacity="0.86"/>
<stop offset="0.41" stop-color="white" stop-opacity="0.7"/>
<stop offset="0.62" stop-color="white" stop-opacity="0.47"/>
<stop offset="0.86" stop-color="white" stop-opacity="0.18"/>
<stop offset="1" stop-color="white" stop-opacity="0"/>
</radialGradient>
</defs>
</svg>
