<svg width="122" height="122" viewBox="0 0 122 122" fill="none" xmlns="http://www.w3.org/2000/svg">
<g filter="url(#filter0_d_2196_33401)">
<path d="M87.1192 24.6547H34.8666C28.73 24.6547 23.7402 29.6567 23.7402 35.7933V86.2281C23.7402 92.3646 28.73 97.3545 34.8666 97.3545H87.1192C93.268 97.3545 98.2578 92.3646 98.2578 86.2281V35.7811C98.2578 29.6445 93.268 24.6425 87.1192 24.6425V24.6547ZM92.1578 86.2281C92.1578 88.9975 89.9008 91.2545 87.1192 91.2545H34.8666C32.0972 91.2545 29.8402 88.9975 29.8402 86.2281V35.7811C29.8402 32.9995 32.0972 30.7425 34.8666 30.7425H87.1192C89.9008 30.7425 92.1578 32.9995 92.1578 35.7811V86.2158V86.2281Z" fill="url(#paint0_radial_2196_33401)"/>
</g>
<path d="M88.9508 30.757H33.0504C31.2783 30.757 29.8418 32.1935 29.8418 33.9656V88.0482C29.8418 89.8202 31.2783 91.2568 33.0504 91.2568H88.9508C90.7229 91.2568 92.1594 89.8202 92.1594 88.0482V33.9656C92.1594 32.1935 90.7229 30.757 88.9508 30.757Z" fill="#DDC8B1"/>
<path d="M83.4966 36.053H38.5152C36.7432 36.053 35.3066 37.4895 35.3066 39.2616V82.7424C35.3066 84.5144 36.7432 85.951 38.5152 85.951H83.4966C85.2687 85.951 86.7052 84.5144 86.7052 82.7424V39.2616C86.7052 37.4895 85.2687 36.053 83.4966 36.053Z" fill="white"/>
<path d="M69.4546 53.5594H52.5332C51.1115 53.5594 49.959 54.712 49.959 56.1336V65.8692C49.959 67.2909 51.1115 68.4434 52.5332 68.4434H69.4546C70.8763 68.4434 72.0288 67.2909 72.0288 65.8692V56.1336C72.0288 54.712 70.8763 53.5594 69.4546 53.5594Z" fill="#EC1C24"/>
<path d="M63.9027 61.17L59.3887 58.5592V63.7686L63.9027 61.17Z" fill="white"/>
<defs>
<filter id="filter0_d_2196_33401" x="21.3002" y="22.2025" width="84.2776" height="82.472" filterUnits="userSpaceOnUse" color-interpolation-filters="sRGB">
<feFlood flood-opacity="0" result="BackgroundImageFix"/>
<feColorMatrix in="SourceAlpha" type="matrix" values="0 0 0 0 0 0 0 0 0 0 0 0 0 0 0 0 0 0 127 0" result="hardAlpha"/>
<feOffset dx="2.44" dy="2.44"/>
<feGaussianBlur stdDeviation="2.44"/>
<feColorMatrix type="matrix" values="0 0 0 0 0.137255 0 0 0 0 0.137255 0 0 0 0 0.137255 0 0 0 0.1 0"/>
<feBlend mode="normal" in2="BackgroundImageFix" result="effect1_dropShadow_2196_33401"/>
<feBlend mode="normal" in="SourceGraphic" in2="effect1_dropShadow_2196_33401" result="shape"/>
</filter>
<radialGradient id="paint0_radial_2196_33401" cx="0" cy="0" r="1" gradientUnits="userSpaceOnUse" gradientTransform="translate(60.999 60.9985) scale(79.3976 79.3976)">
<stop stop-color="white"/>
<stop offset="0.08" stop-color="white" stop-opacity="0.96"/>
<stop offset="0.23" stop-color="white" stop-opacity="0.86"/>
<stop offset="0.41" stop-color="white" stop-opacity="0.7"/>
<stop offset="0.62" stop-color="white" stop-opacity="0.47"/>
<stop offset="0.86" stop-color="white" stop-opacity="0.18"/>
<stop offset="1" stop-color="white" stop-opacity="0"/>
</radialGradient>
</defs>
</svg>
